<?xml version="1.0" encoding="utf-8"?>
<!-- Generator: Adobe Illustrator 25.2.1, SVG Export Plug-In . SVG Version: 6.00 Build 0)  -->
<svg version="1.1" id="Layer_1" xmlns="http://www.w3.org/2000/svg" xmlns:xlink="http://www.w3.org/1999/xlink" x="0px" y="0px"
	 viewBox="0 0 1920 1080" style="enable-background:new 0 0 1920 1080;" xml:space="preserve">
<g>
	<path d="M945,677l-4.7,45.3c-0.1,1.4-1.3,2.4-2.6,2.4H818.5c-1.5,0-2.7-1.2-2.7-2.7V507.6c0-1.5,1.2-2.7,2.7-2.7h50.6
		c1.5,0,2.7,1.2,2.7,2.7v163.8c0,1.5,1.2,2.7,2.7,2.7h68C944,674.1,945.2,675.5,945,677z"/>
	<path d="M1136.2,725.1h-61.6c-1,0-1.8-0.5-2.3-1.3l-51.7-85.6c-1.4-2.4-5.1-1.4-5.1,1.4v82.7c0,1.5-1.2,2.8-2.8,2.8h-50.4
		c-1.5,0-2.7-1.2-2.7-2.7v-214c0-1.5,1.2-2.8,2.8-2.8h50.4c1.5,0,2.8,1.2,2.8,2.8v81c0,2.8,3.6,3.8,5.1,1.5l53.6-84
		c0.5-0.8,1.4-1.3,2.3-1.3h52.2c2.2,0,3.5,2.4,2.3,4.3l-66.8,100.5c-0.6,1-0.6,2.2,0,3.1l74.1,107.4
		C1139.6,722.7,1138.4,725.1,1136.2,725.1z"/>
	<path d="M1285.2,658.2c0,9.6-1.6,28-12.1,43.4c-12.4,18.1-33.5,27.2-62.9,27.2c-24.4,0-43.5-6.3-56.9-18.8
		c-5.8-5.6-14.4-16.5-18.7-34.1c-0.4-1.5,0.6-2.9,2-3.3l50-10.4c1.4-0.3,2.7,0.6,3.1,1.9c4.5,15.5,17.1,16.4,19.8,16.4
		c12.3,0,20-10.4,20-20.1c0-10.6-8.2-14.1-38.7-27.3l-2.5-1.1c-14.4-5.9-52.5-21.7-52.5-63.2c0-44.1,38.8-68,75.3-68
		c6.9,0,19.8,0.9,32.9,6.4c9.3,4,29.1,15.2,33,38.4c0.2,1.4-0.6,2.7-2,3l-46.5,11.6c-1.2,0.3-2.6-0.3-3.1-1.5
		c-2.3-5.3-6.6-9.8-16.2-9.8c-8.8,0-17.9,6.1-17.9,16.2c0,9.5,5.8,12.1,43.5,29.5C1271.1,611.6,1285.2,629.3,1285.2,658.2z"/>
</g>
<g>
</g>
<g>
</g>
<g>
</g>
<g>
</g>
<g>
</g>
<g>
</g>
</svg>
